<svg viewBox="0 0 100 100" xmlns="http://www.w3.org/2000/svg">
  <!-- Background circle -->
  <circle cx="50" cy="50" r="50" fill="#f8f9fa"/>
  
  <!-- Face -->
  <circle cx="50" cy="45" r="20" fill="#ffdbac"/>
  
  <!-- Hair -->
  <path d="M30 35 Q50 20 70 35 Q70 25 50 25 Q30 25 30 35" fill="#3a2317"/>
  
  <!-- Hair flower -->
  <circle cx="38" cy="30" r="4" fill="#dc2626"/>
  <circle cx="38" cy="30" r="2" fill="#991b1b"/>
  
  <!-- Eyes -->
  <circle cx="44" cy="42" r="2" fill="#1f2937"/>
  <circle cx="56" cy="42" r="2" fill="#1f2937"/>
  <circle cx="44.5" cy="41.5" r="0.5" fill="white"/>
  <circle cx="56.5" cy="41.5" r="0.5" fill="white"/>
  
  <!-- Nose -->
  <circle cx="50" cy="46" r="1" fill="#f3c5a0"/>
  
  <!-- Mouth -->
  <path d="M47 50 Q50 52 53 50" stroke="#e91e63" stroke-width="1" fill="none" stroke-linecap="round"/>
  
  <!-- Body/Dress -->
  <path d="M35 65 Q50 60 65 65 L65 85 Q50 90 35 85 Z" fill="#be185d"/>
  
  <!-- Dress pattern -->
  <circle cx="45" cy="72" r="1" fill="#fbbf24"/>
  <circle cx="55" cy="75" r="1" fill="#fbbf24"/>
  <circle cx="50" cy="78" r="1" fill="#fbbf24"/>
</svg>